<svg id="Capa_1" enable-background="new 0 0 512 512" height="512" viewBox="0 0 512 512" width="512" xmlns="http://www.w3.org/2000/svg"><g><path d="m512 256c0 24.79-3.52 48.75-10.1 71.42-9.579 33.042-43.11 53.078-64.182 79.146-13.577 16.796-11.762 42.09-29.108 54.994-42.62 31.68-95.42 50.44-152.61 50.44-141.38 0-256-114.62-256-256s114.62-256 256-256 256 114.62 256 256z" fill="#95d6a4"/><g><g><path d="m308.108 133.098v91.659c0 24.833-13.226 47.787-34.711 60.241l-88.798 51.472c-17.631 10.22-39.384 10.22-57.016 0l-88.798-51.472c-21.485-12.454-34.711-35.408-34.711-60.241v-91.659c0-24.526 12.903-47.242 33.968-59.804l88.935-53.033c17.936-10.696 40.293-10.696 58.229 0l88.935 53.033c21.064 12.562 33.967 35.279 33.967 59.804z" fill="#fbe2dd"/></g><path d="m282.799 117.923-91.662 54.786c-13.63 8.146-21.975 22.857-21.975 38.735v105.448c0 10.172 11.021 16.522 19.821 11.42l91.295-52.925c13.923-8.072 22.494-22.947 22.494-39.041v-107.092c0-10.251-11.174-16.59-19.973-11.331z" fill="#f9f6f6"/><path d="m270.762 74.169-87.068-51.921c-17.005-10.141-38.201-10.141-55.206 0l-87.068 51.921c-8.334 4.97-8.334 17.041 0 22.011l87.068 51.921c17.005 10.141 38.201 10.141 55.206 0l87.068-51.921c8.335-4.97 8.335-17.041 0-22.011z" fill="#f9f6f6"/><g fill="#665e66"><ellipse cx="69.785" cy="85.558" rx="21.544" ry="12.682"/><ellipse cx="244.431" cy="85.558" rx="21.544" ry="12.682"/><ellipse cx="156.091" cy="133.079" rx="21.544" ry="12.682"/><ellipse cx="199.947" cy="108.443" rx="21.544" ry="12.682"/><ellipse cx="158.125" cy="38.037" rx="21.544" ry="12.682"/><ellipse cx="113.641" cy="60.923" rx="21.544" ry="12.682"/><ellipse cx="195.747" cy="200.855" rx="21.544" ry="12.682" transform="matrix(.5 -.866 .866 .5 -76.072 269.949)"/><ellipse cx="275.707" cy="246.999" rx="21.544" ry="12.682" transform="matrix(.5 -.866 .866 .5 -76.054 362.269)"/><ellipse cx="195.787" cy="294.057" rx="21.544" ry="12.682" transform="matrix(.5 -.866 .866 .5 -156.767 316.585)"/><ellipse cx="275.707" cy="155.417" rx="21.544" ry="12.682" transform="matrix(.5 -.866 .866 .5 3.258 316.478)"/></g><path d="m29.383 117.923 91.663 54.786c13.63 8.146 21.975 22.857 21.975 38.735v105.448c0 10.172-11.021 16.522-19.821 11.42l-80.273-46.535c-20.747-12.025-33.517-34.19-33.517-58.169v-94.354c0-10.251 11.174-16.59 19.973-11.331z" fill="#ffd8d5"/><ellipse cx="76.03" cy="224.362" fill="#544f57" rx="12.682" ry="21.544" transform="matrix(.866 -.5 .5 .866 -101.995 68.074)"/><ellipse cx="116.395" cy="294.057" fill="#544f57" rx="12.682" ry="21.544" transform="matrix(.866 -.5 .5 .866 -131.435 97.594)"/><ellipse cx="36.475" cy="155.417" fill="#544f57" rx="12.682" ry="21.544" transform="matrix(.866 -.5 .5 .866 -72.822 39.06)"/></g><g><g><path d="m501.9 275.7v51.72c-1.6 5.52-3.38 10.96-5.34 16.32-3.799 10.417-8.256 20.517-13.319 30.251-2.792 5.367-11.71 8.418-14.863 13.554-4.099 6.678-2.554 15.357-7.23 21.612-9.135 12.219-19.337 23.595-30.469 33.994-7 6.53-14.37 12.68-22.07 18.41l-30.22 17.51c-17.63 10.22-39.38 10.22-57.02 0l-88.79-51.47c-21.49-12.45-34.72-35.41-34.72-60.24v-91.661c0-24.52 12.91-47.24 33.97-59.8l88.94-53.03c17.93-10.7 40.29-10.7 58.23 0l88.93 53.03c21.071 12.56 33.971 35.28 33.971 59.8z" fill="#fbe2dd"/></g><path d="m496.56 271.86v71.88c-3.8 10.42-8.26 20.52-13.32 30.25-3.21 6.175-11.174 7.691-14.861 13.555-3.688 5.864-3.099 16.075-7.239 21.605-9.13 12.22-19.33 23.6-30.46 34l-47.91 27.77c-8.8 5.1-19.82-1.25-19.82-11.42v-105.45c0-15.88 8.35-30.59 21.98-38.74l91.66-54.78c8.8-5.26 19.97 1.08 19.97 11.33z" fill="#f9f6f6"/><ellipse cx="429.943" cy="366.965" fill="#665e66" rx="21.544" ry="12.682" transform="matrix(.5 -.866 .866 .5 -102.83 555.824)"/><ellipse cx="389.537" cy="343.459" fill="#665e66" rx="21.544" ry="12.682" transform="matrix(.5 -.866 .866 .5 -102.675 509.079)"/><path d="m483.24 373.99c-6.42 12.35-13.82 24.1-22.1 35.16-.85-.16-1.66-.46-2.41-.89-6.07-3.5-6.16-14.69-.22-25 5.95-10.3 15.69-15.82 21.76-12.31 1.24.72 2.23 1.75 2.97 3.04z" fill="#665e66"/><path d="m223.173 260.527 91.663 54.786c13.63 8.146 21.975 22.857 21.975 38.735v105.448c0 10.172-11.021 16.522-19.821 11.42l-80.273-46.535c-20.745-12.026-33.516-34.191-33.516-58.17v-94.354c-.001-10.25 11.174-16.589 19.972-11.33z" fill="#ffd8d5"/><ellipse cx="269.821" cy="366.965" fill="#544f57" rx="12.682" ry="21.544" transform="matrix(.866 -.5 .5 .866 -147.334 184.074)"/><path d="m464.553 216.773-87.068-51.921c-17.005-10.141-38.201-10.141-55.206 0l-87.068 51.921c-8.334 4.97-8.334 17.041 0 22.011l87.068 51.921c17.005 10.141 38.201 10.141 55.206 0l87.068-51.921c8.334-4.971 8.334-17.041 0-22.011z" fill="#f9f6f6"/><g fill="#665e66"><ellipse cx="263.575" cy="228.161" rx="21.544" ry="12.682"/><ellipse cx="438.222" cy="228.161" rx="21.544" ry="12.682"/><ellipse cx="393.848" cy="204.577" rx="21.544" ry="12.682"/><ellipse cx="349.882" cy="275.682" rx="21.544" ry="12.682"/><ellipse cx="351.915" cy="180.641" rx="21.544" ry="12.682"/><ellipse cx="305.508" cy="252.098" rx="21.544" ry="12.682"/></g></g><g fill="#f5de58"><g><path d="m437.343 170.672-.608-2.517c-2.144-8.878 2.952-17.9 11.662-20.647l26.792-8.449c9.597-3.026 19.749 2.708 22.112 12.489l1.511 6.255c2.363 9.781-4.053 19.518-13.973 21.205l-27.695 4.712c-9.004 1.531-17.657-4.171-19.801-13.048z"/><path d="m405.746 118.341-1.785-1.876c-6.296-6.616-6.394-16.978-.224-23.712l18.978-20.713c6.798-7.419 18.457-7.529 25.394-.24l4.436 4.661c6.937 7.29 6.249 18.929-1.499 25.351l-21.629 17.928c-7.031 5.829-17.375 5.217-23.671-1.399z"/><path d="m355.763 82.344-2.484-.732c-8.761-2.582-14.026-11.506-12.05-20.423l6.079-27.427c2.177-9.824 12.22-15.749 21.872-12.905l6.172 1.819c9.652 2.845 14.876 13.269 11.378 22.704l-9.767 26.34c-3.176 8.564-12.439 13.206-21.2 10.624z"/></g><g><path d="m66.75 354.498.608 2.517c2.144 8.878-2.952 17.9-11.662 20.647l-26.792 8.449c-9.597 3.026-19.749-2.708-22.112-12.489l-1.511-6.255c-2.363-9.781 4.053-19.517 13.973-21.205l27.695-4.712c9.004-1.531 17.657 4.17 19.801 13.048z"/><path d="m98.347 406.829 1.785 1.876c6.296 6.616 6.394 16.978.224 23.712l-18.978 20.713c-6.798 7.419-18.457 7.529-25.394.24l-4.436-4.661c-6.937-7.29-6.249-18.929 1.499-25.351l21.629-17.928c7.031-5.829 17.375-5.218 23.671 1.399z"/><path d="m148.33 442.826 2.484.732c8.761 2.582 14.026 11.506 12.05 20.423l-6.079 27.427c-2.177 9.824-12.22 15.749-21.872 12.905l-6.172-1.819c-9.652-2.845-14.876-13.269-11.378-22.704l9.767-26.34c3.176-8.564 12.44-13.206 21.2-10.624z"/></g></g></g></svg>