<svg id="Capa_1" enable-background="new 0 0 512 512" height="512" viewBox="0 0 512 512" width="512" xmlns="http://www.w3.org/2000/svg"><g><g><path d="m256 22c-135.31 0-245 109.69-245 245 0 77.063 35.591 145.802 91.219 190.714h42.855v27.786c33.306 16.943 70.999 26.5 110.926 26.5 135.31 0 245-109.69 245-245s-109.69-245-245-245z" fill="#fc5197"/></g><g><g><path d="m120.269 109.269h271.461v271.461h-271.461z" fill="#293d7c" transform="matrix(.259 .966 -.966 .259 426.394 -65.688)"/></g><g><path d="m123.672 135.115h71.743v271.461h-71.743z" fill="#1a2b63" transform="matrix(.966 -.259 .259 .966 -64.664 50.522)"/></g><g><path d="m25.376 96.017 59.934-16.059 19.904 36.822 1.174 41.841-36.822 19.904-41.841 1.174-16.059-59.934c-2.772-10.344 3.366-20.976 13.71-23.748z" fill="#293d7c"/></g><g><path d="m381.235.666-59.934 16.059 1.174 41.841 19.904 36.822 41.841-1.174 36.822-19.904-16.059-59.934c-2.772-10.344-13.404-16.482-23.748-13.71z" fill="#293d7c"/></g><g><path d="m398.567 80.333c-10.344 2.772-20.976-3.367-23.748-13.711l-11.041-41.205c-2.772-10.344 3.367-20.976 13.711-23.748l-56.188 15.056 1.174 41.841 19.904 36.822 41.841-1.174 15.78-8.53z" fill="#1a2b63"/></g><g><path d="m486.624 393.983-59.934 16.059-19.904-36.822-1.174-41.841 36.822-19.904 41.841-1.174 16.059 59.934c2.772 10.344-3.366 20.976-13.71 23.748z" fill="#293d7c"/></g><g><path d="m459.13 381.275-11.041-41.205c-2.772-10.344 3.367-20.976 13.711-23.748l-1.434-5.351-17.932.503-36.822 19.904 1.174 41.841 19.904 36.822 56.188-15.056c-10.344 2.773-20.977-3.366-23.748-13.71z" fill="#1a2b63"/></g><g><path d="m169.622 394.612-41.841 1.174-36.823 19.904 11.26 42.025c13.224 10.677 27.574 20.013 42.855 27.786l45.626-12.225-1.174-41.841z" fill="#293d7c"/></g><g><path d="m144.476 465.587-11.041-41.205c-2.772-10.344 3.367-20.976 13.711-23.748l-1.434-5.351-17.932.503-36.822 19.904 11.26 42.025c13.224 10.677 27.574 20.013 42.855 27.786l23.15-6.203c-10.343 2.771-20.975-3.368-23.747-13.711z" fill="#1a2b63"/></g><g><path d="m163.974 58.88 78.663-21.077 19.904 36.822 1.174 41.841-78.663 21.078-19.904-36.823z" fill="#7aaffc"/></g><g><path d="m217.492 108.777-11.041-41.205c-2.772-10.344 3.367-20.976 13.711-23.748l-56.188 15.056 1.174 41.841 19.904 36.822 56.188-15.056c-10.344 2.773-20.977-3.366-23.748-13.71z" fill="#5891ed"/></g><g><path d="m127.466 237.285 21.078 78.663-36.823 19.904-41.841 1.174-21.077-78.663 36.822-19.904z" fill="#7aaffc"/></g><g><path d="m126.069 321.971c-10.344 2.772-20.976-3.367-23.748-13.711l-11.041-41.205c-2.772-10.344 3.367-20.976 13.711-23.748l-1.434-5.351-17.932.503-36.822 19.904 21.078 78.663 41.841-1.174 15.781-8.53z" fill="#5891ed"/></g><g><path d="m442.12 152.974 21.077 78.663-36.822 19.904-41.841 1.174-21.078-78.663 36.823-19.904z" fill="#7aaffc"/></g><g><path d="m248.285 373.534 78.663-21.078 19.904 36.823 1.174 41.841-78.663 21.077-19.904-36.822z" fill="#7aaffc"/></g><g><path d="m301.803 423.431-11.041-41.205c-2.772-10.344 3.367-20.976 13.711-23.748l-56.188 15.056 1.174 41.841 19.904 36.822 56.188-15.056c-10.344 2.773-20.976-3.366-23.748-13.71z" fill="#5891ed"/></g><g><path d="m94.462 68.032h81.438v81.438h-81.438z" fill="#e8f8fc" transform="matrix(.966 -.259 .259 .966 -23.541 38.693)"/></g><g><path d="m214.516 153.88 33.585 19.39c9.274 5.354 12.452 17.213 7.097 26.487l-38.78 67.169c-5.354 9.274-17.213 12.452-26.487 7.097l-33.585-19.39c-9.274-5.354-12.452-17.213-7.097-26.487l38.78-67.169c5.355-9.274 17.213-12.451 26.487-7.097z" fill="#ffcd38"/></g><g><path d="m189.774 273.934c-9.274-5.354-12.452-17.213-7.097-26.487l38.78-67.169c5.354-9.274 17.213-12.452 26.487-7.097l.157.091s0 0-.001 0l-33.585-19.39c-9.274-5.354-21.133-2.177-26.487 7.097l-38.78 67.169c-5.354 9.274-2.177 21.133 7.097 26.487l33.585 19.39h.001z" fill="#ffac00"/></g><g><path d="m322.069 215.976 33.585 19.39c9.274 5.354 12.452 17.213 7.097 26.487l-38.78 67.169c-5.354 9.274-17.213 12.452-26.487 7.097l-33.585-19.39c-9.274-5.354-12.452-17.213-7.097-26.487l38.78-67.169c5.354-9.274 17.213-12.452 26.487-7.097z" fill="#60d882"/></g><g><path d="m297.327 336.029c-9.274-5.354-12.452-17.213-7.097-26.487l38.78-67.169c5.354-9.274 17.213-12.452 26.487-7.097l.157.091s0 0-.001 0l-33.585-19.39c-9.274-5.354-21.133-2.177-26.487 7.097l-38.78 67.169c-5.354 9.274-2.177 21.133 7.097 26.487l33.585 19.39h.001z" fill="#37c47a"/></g><g><path d="m83.913 164.644c-10.344 2.772-20.976-3.367-23.748-13.711l-11.041-41.205c-2.772-10.344 3.367-20.976 13.711-23.748l-37.459 10.037c-10.344 2.772-16.483 13.404-13.711 23.748l16.059 59.934 41.841-1.174 15.781-8.53z" fill="#1a2b63"/></g><g><path d="m138.828 129.855-11.041-41.205c-2.772-10.344 3.367-20.976 13.711-23.748l-56.188 15.056 21.078 78.663 56.188-15.056c-10.344 2.773-20.976-3.366-23.748-13.71z" fill="#c7e7f3"/></g><g><path d="m251.789 25.876h81.438v81.438h-81.438z" fill="#e8f8fc" transform="matrix(.966 -.259 .259 .966 -7.269 77.976)"/></g><g><path d="m178.773 382.685h81.438v81.438h-81.438z" fill="#e8f8fc" transform="matrix(.966 -.259 .259 .966 -102.106 71.236)"/></g><g><path d="m223.14 444.509-11.041-41.205c-2.772-10.344 3.367-20.976 13.711-23.748l-56.188 15.056 21.078 78.663 56.188-15.056c-10.344 2.772-20.977-3.366-23.748-13.71z" fill="#c7e7f3"/></g><g><path d="m336.1 340.53h81.438v81.438h-81.438z" fill="#e8f8fc" transform="matrix(.966 -.259 .259 .966 -85.835 110.519)"/></g><g><path d="m351.53 83.462h81.438v81.438h-81.438z" fill="#e8f8fc" transform="matrix(.966 -.259 .259 .966 -18.775 105.753)"/></g><g><path d="m393.685 240.789h81.438v81.438h-81.438z" fill="#e8f8fc" transform="matrix(.966 -.259 .259 .966 -58.058 122.024)"/></g><g><path d="m36.876 167.773h81.438v81.438h-81.438z" fill="#e8f8fc" transform="matrix(.966 -.259 .259 .966 -51.318 27.187)"/></g><g><path d="m79.032 325.1h81.438v81.438h-81.438z" fill="#e8f8fc" transform="matrix(.966 -.259 .259 .966 -90.601 43.459)"/></g><g><path d="m296.155 87.7-11.041-41.205c-2.772-10.344 3.367-20.976 13.711-23.748l-56.188 15.056 21.078 78.663 56.188-15.056c-10.344 2.772-20.976-3.367-23.748-13.71z" fill="#c7e7f3"/></g><g><path d="m395.896 145.285-11.041-41.205c-2.772-10.344 3.367-20.976 13.711-23.748l-56.188 15.056 21.078 78.663 56.188-15.056c-10.344 2.773-20.976-3.366-23.748-13.71z" fill="#c7e7f3"/></g><g><path d="m416.974 223.949-11.041-41.205c-2.772-10.344 3.367-20.976 13.711-23.748l-56.188 15.056 21.078 78.663 56.188-15.056c-10.344 2.772-20.976-3.367-23.748-13.71z" fill="#5891ed"/></g><g><path d="m438.052 302.612-11.041-41.205c-2.772-10.344 3.367-20.976 13.711-23.748l-56.188 15.056 21.078 78.663 56.188-15.056c-10.344 2.772-20.976-3.366-23.748-13.71z" fill="#c7e7f3"/></g><g><path d="m380.466 402.353-11.041-41.205c-2.772-10.344 3.367-20.976 13.711-23.748l-56.188 15.056 21.078 78.663 56.188-15.056c-10.344 2.773-20.976-3.366-23.748-13.71z" fill="#c7e7f3"/></g><g><path d="m81.243 229.596-11.041-41.205c-2.772-10.344 3.367-20.976 13.711-23.748l-56.188 15.056 21.078 78.663 56.188-15.056c-10.344 2.773-20.977-3.366-23.748-13.71z" fill="#c7e7f3"/></g><g><path d="m123.398 386.923-11.041-41.205c-2.772-10.344 3.367-20.976 13.711-23.748l-56.188 15.056 21.078 78.663 56.188-15.056c-10.344 2.773-20.976-3.366-23.748-13.71z" fill="#c7e7f3"/></g><g><path d="m184.925 226.355 19.39-33.585c2.425-4.199 7.794-5.638 11.994-3.214 4.199 2.425 5.638 7.794 3.214 11.994l-19.39 33.585c-2.425 4.199-7.794 5.638-11.994 3.214-4.2-2.425-5.639-7.795-3.214-11.994z" fill="#ff8500"/></g><g><path d="m292.478 288.45 19.39-33.585c2.424-4.199 7.794-5.638 11.993-3.214 4.199 2.424 5.638 7.794 3.214 11.993l-19.39 33.585c-2.424 4.199-7.794 5.638-11.994 3.214-4.199-2.424-5.638-7.793-3.213-11.993z" fill="#28b266"/></g></g></g></svg>