<svg width="600" height="443" viewBox="0 0 600 443" fill="none" xmlns="http://www.w3.org/2000/svg">
<g opacity="0.1" clip-path="url(#clip0)">
<path d="M508.778 96.3129L22.2943 97.3102L265.78 248.622L508.778 96.3129Z" fill="#94C1FF"/>
<path d="M6.2705 107.226L6.80324 420.846L462.838 419.957C497.345 419.834 525.304 389.857 525.203 352.976L524.753 106.235L265.729 268.458L6.2705 107.226Z" fill="#94C1FF"/>
<path d="M421.507 96.4712C420.889 100.644 420.58 104.84 420.571 109.214C420.532 122.492 423.667 135.066 429.245 146.256L508.779 96.3168L421.507 96.4712Z" fill="#353E93"/>
<path d="M504.197 192.695C511.373 192.753 518.319 191.701 524.833 190.148L524.742 106.395L438.179 160.661C453.611 180.075 477.499 192.766 504.197 192.695Z" fill="#353E93"/>
<path d="M579.32 161.953C614.274 131.755 618.155 78.9168 587.989 43.9365C557.822 8.95615 505.031 5.07977 470.077 35.2784C435.123 65.477 431.241 118.315 461.408 153.295C491.574 188.276 544.365 192.152 579.32 161.953Z" fill="#AC3B61"/>
<path d="M538.726 145.546L519.083 145.197L520.081 80.5865L507.759 80.4626L508.11 60.8019L539.92 61.2635L538.726 145.546Z" fill="white"/>
</g>
<defs>
<clipPath id="clip0">
<rect width="600" height="443" fill="white"/>
</clipPath>
</defs>
</svg>
