<svg width="72" height="72" viewBox="0 0 72 72" fill="none" xmlns="http://www.w3.org/2000/svg">
<path fill-rule="evenodd" clip-rule="evenodd" d="M4.6085 46.7582C4.6085 44.3645 4.62312 44.0744 4.65184 43.6103C4.68095 43.1027 4.78252 42.8268 5.1743 42.7544C5.37744 42.711 5.52233 42.711 5.6671 42.6964C5.87024 42.6964 6.01549 42.6673 6.01549 42.537C6.01549 42.4499 5.92859 42.4063 5.6671 42.4063C5.14517 42.4063 3.34634 42.4499 3.21606 42.4499C2.65026 42.4499 1.89589 42.4063 1.06886 42.4063C0.778646 42.4063 0.633789 42.4355 0.633789 42.5512C0.633789 42.6673 0.778647 42.6964 0.938441 42.6964C1.1558 42.711 1.37357 42.7255 1.50425 42.7689C1.86678 42.8704 1.96836 43.1169 1.99721 43.5232C2.02632 43.9874 2.04087 44.2484 2.04087 46.6129V49.166C2.04087 50.0655 2.02632 50.9356 1.99721 51.5159C1.95387 52.6765 1.93923 52.9376 1.41717 53.0245C1.25737 53.0536 1.09799 53.0682 0.923968 53.0827C0.720834 53.0827 0.633789 53.1261 0.633789 53.213C0.633789 53.3438 0.74994 53.373 0.953075 53.373C1.75073 53.373 2.5342 53.3292 3.21606 53.3292C4.7534 53.3292 6.10256 53.4163 8.1044 53.4163C8.68429 53.4163 8.80053 53.4017 8.91672 53.0245C9.0615 52.604 9.22138 51.2257 9.22138 50.8923C9.22138 50.6891 9.20676 50.6167 9.10519 50.6167C8.989 50.6167 8.96033 50.7329 8.91672 50.8923C8.75719 51.5741 8.51028 51.9513 8.16237 52.1108C7.75597 52.3284 7.29187 52.3426 6.49422 52.3426C5.2899 52.3426 5.01434 52.2702 4.8116 51.9946C4.56486 51.6899 4.6085 50.6454 4.6085 49.1805V46.7582ZM12.4996 50.7329C12.4996 50.9647 12.485 51.6175 12.4418 52.2269C12.4126 52.6474 12.3256 52.9083 11.9485 53.0099C11.8178 53.0536 11.6729 53.0536 11.4406 53.0827C11.2666 53.0827 11.1795 53.1407 11.1795 53.213C11.1795 53.3147 11.2666 53.373 11.4697 53.373C12.1225 53.373 13.2977 53.3292 13.7181 53.3292C14.1968 53.3292 15.4007 53.373 16.4452 53.373C16.6628 53.373 16.7352 53.3147 16.7352 53.2423C16.7352 53.1407 16.6775 53.097 16.5034 53.0827C16.2566 53.0536 15.9664 53.0536 15.7053 52.9958C15.1688 52.8942 15.1397 52.5312 15.1106 52.1687C15.0673 51.5596 15.0673 50.9647 15.0673 50.7329V49.703C15.0673 49.4998 15.0819 48.934 15.2991 48.3246C15.5023 47.7156 17.5767 44.1614 18.0699 43.5523C18.331 43.2185 18.4762 42.972 18.8822 42.8126C19.0562 42.7544 19.2593 42.711 19.4478 42.6964C19.6365 42.6964 19.738 42.6528 19.738 42.537C19.738 42.4355 19.6219 42.4063 19.4478 42.4063C19.1723 42.4063 17.9829 42.4499 17.7798 42.4499C17.2286 42.4499 16.7353 42.4063 16.1405 42.4063C15.9085 42.4063 15.8216 42.4499 15.8216 42.537C15.8216 42.6382 15.9378 42.6819 16.068 42.711C16.5034 42.7835 16.5904 42.9142 16.5904 43.0736C16.5904 43.2622 16.5034 43.5087 16.3581 43.8134C16.0826 44.3937 15.2991 45.8441 14.4145 47.5125C14.1823 47.0771 12.369 43.857 12.137 43.4362C12.0354 43.2476 11.9918 43.1169 11.9918 43.0153C11.9918 42.8995 12.05 42.7544 12.4418 42.711C12.659 42.6673 12.7319 42.6382 12.7319 42.5224C12.7319 42.4354 12.6158 42.4063 12.4559 42.4063C11.5422 42.4063 10.6285 42.4499 10.382 42.4499C9.83044 42.4499 8.74265 42.4063 8.14774 42.4063C7.97372 42.4063 7.85756 42.4355 7.85756 42.537C7.85756 42.624 7.93038 42.6819 8.07529 42.6964C8.19148 42.711 8.36552 42.7398 8.45247 42.7689C8.9167 42.9142 9.07609 43.1027 9.62766 43.9441C10.1205 44.6837 11.5567 47.0771 12.0933 48.0637C12.3402 48.5424 12.4996 48.8325 12.4996 49.6156V50.7329ZM20.7533 51.2403C20.7099 52.5895 20.6373 52.9521 20.0715 53.0392C19.9121 53.0683 19.7234 53.0682 19.5927 53.0827C19.39 53.0827 19.3171 53.1407 19.3171 53.2277C19.3171 53.3439 19.4333 53.373 19.6365 53.373C20.2021 53.373 21.2758 53.3292 21.6092 53.3292C22.5084 53.3438 22.9729 53.373 23.4804 53.373C23.7127 53.373 23.8284 53.3439 23.8284 53.2277C23.8284 53.1407 23.756 53.097 23.5387 53.0827C23.2485 53.0536 22.9871 53.0536 22.7698 52.9812C22.3635 52.8359 22.3057 52.4442 22.2766 51.3997L22.1317 46.4535C23.1903 47.4834 24.6411 48.8471 25.4532 49.5868C26.3237 50.3844 27.6 51.5305 28.5865 52.4009C29.5295 53.2277 29.9791 53.5757 30.2113 53.5757C30.4 53.5757 30.5015 53.4163 30.5015 52.6765C30.5593 49.7608 30.5594 46.8597 30.6754 43.9441C30.7188 43.0444 30.8641 42.798 31.3428 42.7398C31.4444 42.711 31.5168 42.711 31.7053 42.6964C31.8793 42.6964 31.9518 42.6095 31.9518 42.537C31.9518 42.4499 31.8503 42.4063 31.633 42.4063C31.0235 42.4063 30.2982 42.4499 29.979 42.4499C29.3988 42.4499 28.4558 42.4063 27.8759 42.4063C27.7161 42.4063 27.5859 42.4499 27.5859 42.5512C27.5859 42.624 27.6583 42.6964 27.8468 42.6964C28.0499 42.711 28.2818 42.7255 28.485 42.7689C29.0653 42.8704 29.1377 43.2476 29.167 44.0598L29.2539 49.4998C28.8621 49.1514 27.8614 48.1797 26.3815 46.816C23.06 43.7697 22.3057 43.0445 21.6963 42.537C21.3191 42.2323 21.2467 42.1886 21.1305 42.1886C20.9564 42.1886 20.8986 42.4499 20.884 42.885C20.7971 44.7562 20.8257 48.2522 20.7533 51.2403V51.2403ZM34.5919 49.166C34.5919 50.4135 34.5627 51.4434 34.5194 52.1399C34.4758 52.7056 34.331 52.9812 34.0408 53.0245C33.8814 53.0536 33.7798 53.0682 33.5911 53.0827C33.4313 53.0827 33.3155 53.1261 33.3155 53.2277C33.3155 53.3001 33.3589 53.373 33.6054 53.373C34.0116 53.373 34.2002 53.3583 34.6065 53.3438C35.0127 53.3292 35.3609 53.3292 35.7089 53.3292C35.9845 53.3292 36.5792 53.373 37.145 53.4308C37.6237 53.4741 38.117 53.4886 38.6969 53.4886C41.6126 53.4886 42.9471 52.488 43.6582 51.7628C44.485 50.9793 45.2539 49.5432 45.2539 47.7881C45.2539 46.0617 44.6011 44.8433 43.8614 44.1035C42.5413 42.7544 40.5973 42.4355 38.117 42.4208C36.8982 42.4355 36.2454 42.4499 35.7671 42.4499C35.1286 42.4499 33.794 42.4063 33.4313 42.4063C33.1848 42.4063 33.0979 42.4499 33.0979 42.537C33.0979 42.6095 33.1557 42.6819 33.3735 42.6964C33.6491 42.7255 33.794 42.7255 33.91 42.7398C34.4612 42.798 34.5341 43.1898 34.5628 43.6103C34.5919 44.0744 34.5919 44.4806 34.5919 46.6129V49.166ZM37.1596 46.381C37.1596 45.2058 37.1884 44.1614 37.1742 43.6685C37.1742 43.5378 37.1884 43.4653 37.3044 43.4071C37.4351 43.3347 37.7686 43.2913 38.0878 43.2913C39.0453 43.2913 40.4233 43.5669 41.424 44.8724C42.0334 45.6992 42.5122 46.8742 42.5122 48.1943C42.5122 49.5577 42.3236 50.8487 41.5693 51.6028C40.8004 52.4009 39.9445 52.6186 38.9293 52.6186C38.291 52.6186 37.6962 52.4155 37.4351 52.0962C37.2753 51.9368 37.2175 51.6466 37.1883 51.0518C37.1741 50.7762 37.1596 49.7754 37.1596 48.2377V46.381ZM48.0824 49.166C48.0824 50.0655 48.0679 50.9214 48.0388 51.5013C48.0101 52.4155 47.9517 52.9667 47.5459 53.0245C47.4298 53.0536 47.2845 53.0682 47.1105 53.0827C46.8931 53.0827 46.8203 53.1552 46.8203 53.2277C46.8203 53.3292 46.9073 53.373 47.1687 53.373C47.9663 53.373 48.5757 53.3292 49.2576 53.3292C50.7804 53.3292 51.8686 53.4163 53.8705 53.4163C54.4072 53.4163 54.5087 53.4017 54.6103 53.0245C54.6827 52.7489 54.8421 51.6466 54.8421 51.0809C54.8421 50.9069 54.8276 50.7616 54.7118 50.7616C54.6248 50.7616 54.5665 50.8486 54.5374 51.0225C54.4071 51.6899 54.2331 52.0093 53.8268 52.1687C53.4205 52.3284 52.8548 52.3426 52.4776 52.3426C50.8674 52.3426 50.6647 52.1108 50.6502 51.0954C50.6356 50.5442 50.6502 49.6884 50.6502 49.1951V48.1943C50.6502 48.0782 50.6647 48.0057 50.7371 48.0057C51.1867 48.0057 52.376 48.0345 52.7823 48.0637C53.4933 48.107 53.6961 48.3537 53.7544 48.7742C53.7689 48.8904 53.7831 48.992 53.7977 49.1081C53.8268 49.2385 53.856 49.34 53.9576 49.34C54.0445 49.34 54.0878 49.253 54.0878 49.0644C54.0878 48.9049 54.0878 48.1943 54.1024 47.8605C54.146 47.2947 54.2185 46.7727 54.2185 46.6275C54.2185 46.5404 54.2185 46.4535 54.1315 46.4535C54.0591 46.4535 54.0154 46.5113 53.9284 46.642C53.7689 46.9031 53.5803 46.9467 52.8694 46.9755C52.3473 46.99 51.1721 47.0046 50.7658 46.99C50.6647 46.99 50.6502 46.9176 50.6502 46.816V43.6247C50.6502 43.5232 50.6789 43.4798 50.7658 43.4798C51.2012 43.4798 52.4632 43.5087 52.9419 43.5523C53.6382 43.6102 53.8268 43.7987 53.8993 44.1326C53.9575 44.3354 53.9718 44.4806 53.9718 44.6402C53.9863 44.7708 54.0445 44.8433 54.1169 44.8433C54.204 44.8433 54.2618 44.7562 54.2618 44.6402C54.3055 43.8858 54.3346 43.3783 54.378 43.0882C54.4216 42.6673 54.4505 42.5224 54.4505 42.4499C54.4505 42.3772 54.4363 42.3192 54.3634 42.3192C54.3056 42.3192 54.2331 42.3484 54.1315 42.3772C53.9862 42.4063 53.6382 42.4354 53.3481 42.4354C53.1162 42.4354 49.5619 42.4499 49.2576 42.4499C48.6191 42.4499 47.923 42.4063 47.0958 42.4063C46.864 42.4063 46.777 42.4499 46.777 42.537C46.777 42.624 46.8494 42.6819 47.038 42.6964C47.1833 42.711 47.3861 42.711 47.5168 42.7398C47.8793 42.8268 48.0101 43.0736 48.0388 43.4941C48.0679 43.9583 48.0824 44.2484 48.0824 46.6129V49.166ZM68.3326 42.7398C68.289 42.3772 68.2019 42.1741 68.0568 42.1741C67.9119 42.1741 67.7957 42.3193 67.5638 42.6964L63.5892 49.7172L59.4404 42.7689C59.1357 42.3193 59.0342 42.1741 58.8748 42.1741C58.7299 42.1741 58.6283 42.3048 58.5701 42.7398L57.25 51.6612C57.105 52.6186 56.9599 52.9521 56.5394 53.0392C56.3795 53.0683 56.2201 53.0682 56.104 53.0827C55.9012 53.0827 55.8138 53.1407 55.8138 53.2277C55.8138 53.373 55.9882 53.373 56.1331 53.373C56.6697 53.373 57.3515 53.3292 57.8011 53.3292C58.2365 53.3292 59.0342 53.373 59.6723 53.373C59.9047 53.373 59.9625 53.3292 59.9625 53.213C59.9625 53.1261 59.9192 53.0827 59.7014 53.0827C59.5129 53.0682 59.3826 53.0536 59.1649 53.0099C58.8023 52.9376 58.657 52.7635 58.657 52.3426C58.657 52.1253 58.657 51.8061 58.7152 51.1825L59.1358 47.0916C59.4113 47.5849 60.0494 48.7742 60.2963 49.1951C60.8475 50.1235 61.7325 51.7769 62.2399 52.5895C62.6462 53.2277 62.7332 53.373 62.8926 53.373C63.0088 53.373 63.0958 53.2855 63.4876 52.5458L66.4757 46.9467L66.998 52.1399C67.056 52.7927 67.0414 52.8796 66.8095 52.9667C66.708 52.9958 66.6498 53.0536 66.6498 53.1115C66.6498 53.1843 66.708 53.2714 66.9835 53.2855C68.6371 53.3729 69.8121 53.373 71.0161 53.373C71.2483 53.373 71.3641 53.3439 71.3641 53.2277C71.3641 53.1261 71.2771 53.0827 71.0885 53.0827C70.9 53.0682 70.552 53.0392 70.2618 52.9521C69.7831 52.8072 69.6381 52.4442 69.5221 51.5013L68.3326 42.7398Z" fill="#0001FF"/>
<path fill-rule="evenodd" clip-rule="evenodd" d="M8.0003 58.0796C8.0003 58.4655 7.9964 58.6865 7.99113 58.8557C7.98191 59.1805 7.92615 59.241 7.83499 59.263C7.80482 59.2722 7.77863 59.2722 7.73529 59.2761C7.7092 59.2801 7.68761 59.2893 7.68761 59.3022C7.68761 59.3285 7.70918 59.337 7.75699 59.337C7.86976 59.341 7.97361 59.3239 8.07781 59.3239C8.24656 59.3239 8.44603 59.3331 8.61965 59.337C8.7884 59.341 8.93142 59.3502 9.25219 59.3502C9.42134 59.3502 9.45577 59.3502 9.48633 59.2374C9.50794 59.1463 9.54269 58.8517 9.54269 58.8169C9.54269 58.7868 9.54265 58.752 9.51656 58.752C9.49483 58.752 9.48629 58.7691 9.47773 58.8169C9.44295 59.0033 9.39515 59.0944 9.2567 59.1377C9.13945 59.1725 8.99636 59.1766 8.86633 59.1766C8.69719 59.1766 8.58035 59.1673 8.50685 59.1377C8.39856 59.0944 8.37237 58.9991 8.36381 58.8214C8.35985 58.7304 8.36381 58.2277 8.36381 58.0801V57.6989C8.36381 57.6814 8.37172 57.6687 8.39412 57.6687C8.46763 57.6687 8.89663 57.678 9.01388 57.6903C9.16959 57.7075 9.22188 57.7681 9.23901 57.8334C9.25218 57.8723 9.2567 57.9155 9.2567 57.9547C9.2567 57.9891 9.26063 58.0238 9.28685 58.0238C9.30411 58.0238 9.31268 58.0021 9.31716 57.9588C9.32111 57.8983 9.32112 57.7986 9.33469 57.6642C9.34786 57.5212 9.36902 57.4477 9.36902 57.4215C9.36902 57.3954 9.35986 57.3867 9.34747 57.3867C9.33022 57.3867 9.31714 57.4043 9.29553 57.43C9.25219 57.4819 9.19582 57.4951 9.07884 57.5037C8.97925 57.5129 8.446 57.5129 8.38962 57.5129C8.36788 57.5129 8.36381 57.4997 8.36381 57.4695V56.2731C8.36381 56.2428 8.3717 56.2298 8.38962 56.2298C8.4373 56.2298 8.90968 56.2338 8.98332 56.243C9.17407 56.2605 9.26523 56.3038 9.29553 56.4035C9.30871 56.4379 9.31716 56.4902 9.31716 56.5466C9.31716 56.5809 9.32502 56.6026 9.3519 56.6026C9.36902 56.6026 9.38207 56.5723 9.38655 56.529C9.39445 56.4162 9.39975 56.3341 9.40384 56.2692C9.41174 56.1477 9.43849 56.0958 9.43849 56.0653C9.43849 56.0435 9.43454 56.0264 9.42136 56.0264C9.40819 56.0264 9.39961 56.0304 9.37352 56.0435C9.34744 56.0567 9.26937 56.0653 9.17412 56.0697C9.0744 56.0737 8.21217 56.0737 8.18161 56.0737C7.90866 56.0605 7.7917 56.0605 7.69211 56.0605C7.64429 56.0605 7.62256 56.0697 7.62256 56.0952C7.62256 56.1124 7.64875 56.1169 7.67892 56.121C7.71778 56.125 7.77414 56.1249 7.80484 56.1341C7.94777 56.1644 7.98217 56.2339 7.99113 56.3814C8.00035 56.5199 8.0003 56.6413 8.0003 57.3171V58.0796ZM12.6495 58.0796C12.6495 58.4956 12.6495 58.8382 12.6278 59.0203C12.6103 59.1458 12.5887 59.241 12.502 59.2585C12.4631 59.2677 12.4285 59.2717 12.3806 59.2758C12.3459 59.2758 12.3373 59.2889 12.3373 59.3018C12.3373 59.3281 12.3589 59.3366 12.4067 59.3366C12.4716 59.3366 12.5714 59.3274 12.658 59.3274C12.7491 59.3235 12.8228 59.3235 12.8313 59.3235C12.853 59.3235 13.0005 59.3366 13.1914 59.3496C13.3776 59.3627 13.6072 59.3754 13.7936 59.3754C14.5304 59.3754 14.9202 59.0721 15.1066 58.8771C15.3493 58.6213 15.5748 58.201 15.5748 57.6549C15.5748 57.1393 15.371 56.7793 15.1543 56.5541C14.6387 56.0209 13.8456 56.0601 13.4165 56.0601C13.1566 56.0601 12.8836 56.0733 12.8313 56.0733C12.8097 56.0733 12.5368 56.0601 12.3418 56.0601C12.294 56.0601 12.2723 56.0694 12.2723 56.0948C12.2723 56.112 12.2899 56.1206 12.32 56.1206C12.3589 56.1206 12.4329 56.1246 12.4672 56.1338C12.6102 56.1641 12.6319 56.2335 12.6408 56.381C12.6501 56.5195 12.65 56.6409 12.65 57.3167L12.6495 58.0796ZM13.0135 57.2477C13.0135 56.9139 13.0135 56.4717 13.0174 56.3247C13.0174 56.2768 13.0306 56.2551 13.0696 56.238C13.104 56.2205 13.2646 56.2074 13.3513 56.2074C13.8669 56.2074 14.361 56.2683 14.7683 56.6973C14.9462 56.8836 15.1843 57.2392 15.1843 57.7892C15.1843 58.1879 15.063 58.6039 14.8377 58.825C14.582 59.0808 14.2094 59.2283 13.8064 59.2283C13.2949 59.2283 13.126 59.1372 13.0696 59.0547C13.035 59.0073 13.0264 58.8339 13.022 58.7254C13.018 58.6432 13.0127 58.2443 13.0127 57.785L13.0135 57.2477ZM18.889 57.3167C18.889 56.6409 18.889 56.5195 18.8982 56.381C18.9061 56.229 18.9415 56.1509 19.0584 56.1338C19.1103 56.1259 19.1364 56.1206 19.1667 56.1206C19.1842 56.1206 19.2013 56.1114 19.2013 56.0948C19.2013 56.0687 19.1797 56.0601 19.1319 56.0601C19.002 56.0601 18.7421 56.0733 18.7028 56.0733C18.664 56.0733 18.3996 56.0601 18.2047 56.0601C18.1569 56.0601 18.1353 56.0694 18.1353 56.0948C18.1353 56.112 18.1525 56.1206 18.17 56.1206C18.2089 56.1206 18.2828 56.1246 18.3171 56.1338C18.4602 56.1641 18.4948 56.2335 18.5038 56.381C18.513 56.5195 18.513 56.6409 18.513 57.3167V57.9497C18.513 58.5823 18.6777 58.8858 18.8898 59.0894C19.1974 59.38 19.6355 59.3971 19.7825 59.3971C20.0383 59.3971 20.3632 59.3537 20.6754 59.0763C21.0223 58.7686 21.0742 58.2489 21.0742 57.7806V57.3167C21.0742 56.6409 21.0742 56.5195 21.0835 56.381C21.0914 56.229 21.1266 56.16 21.2439 56.1338C21.2959 56.1259 21.3216 56.1206 21.3523 56.1206C21.3695 56.1206 21.3865 56.1114 21.3865 56.0948C21.3865 56.0687 21.3649 56.0601 21.3175 56.0601C21.1875 56.0601 20.9837 56.0733 20.9534 56.0733C20.9273 56.0733 20.689 56.0601 20.4942 56.0601C20.4464 56.0601 20.4246 56.0694 20.4246 56.0948C20.4246 56.112 20.4418 56.1206 20.4594 56.1206C20.4982 56.1206 20.5722 56.1246 20.6066 56.1338C20.7495 56.1641 20.7842 56.2335 20.7928 56.381C20.802 56.5195 20.802 56.6409 20.802 57.3167V57.8586C20.802 58.3053 20.7497 58.6735 20.5508 58.9206C20.3947 59.107 20.1344 59.2324 19.87 59.2324C19.6231 59.2324 19.4283 59.1936 19.2158 58.9941C19.0294 58.8164 18.8906 58.5479 18.8906 57.9236L18.889 57.3167ZM25.3585 56.2465C25.5403 56.2505 25.7225 56.2505 25.9043 56.2558C26.3204 56.265 26.4246 56.3641 26.4377 56.4941C26.4377 56.5116 26.4416 56.5246 26.4416 56.5419C26.4456 56.6023 26.4547 56.6154 26.4763 56.6154C26.4939 56.6154 26.5069 56.5983 26.5069 56.559C26.5069 56.5116 26.5201 56.2125 26.5201 56.0825C26.5201 56.0564 26.5201 56.0302 26.4984 56.0302C26.4812 56.0302 26.442 56.0434 26.377 56.052C26.308 56.0651 26.2083 56.0736 26.0693 56.0736H24.4442C24.3923 56.0736 24.2276 56.0657 24.1018 56.052C23.9849 56.0428 23.9415 56.0001 23.9114 56.0001C23.8938 56.0001 23.8766 56.0564 23.8676 56.0825C23.8597 56.1173 23.7724 56.49 23.7724 56.5332C23.7724 56.559 23.7816 56.572 23.7941 56.572C23.8116 56.572 23.8243 56.5641 23.8375 56.5287C23.8506 56.4985 23.8635 56.4682 23.9114 56.3943C23.9804 56.2905 24.0846 56.2602 24.3531 56.2558C24.5656 56.2518 24.7822 56.2518 24.9946 56.2465V58.0796C24.9946 58.4956 24.9946 58.8382 24.973 59.0203C24.9558 59.1458 24.9342 59.241 24.8471 59.2585C24.8084 59.2677 24.7564 59.2758 24.7172 59.2758C24.6913 59.2758 24.6824 59.2889 24.6824 59.3018C24.6824 59.3281 24.7042 59.3366 24.752 59.3366C24.8819 59.3366 25.1548 59.3235 25.1765 59.3235C25.1985 59.3235 25.4715 59.3366 25.7098 59.3366C25.7574 59.3366 25.7792 59.3234 25.7792 59.3018C25.7792 59.2887 25.7713 59.2758 25.7444 59.2758C25.7053 59.2758 25.6101 59.2665 25.5495 59.2585C25.4192 59.241 25.3935 59.1458 25.3803 59.0203C25.3587 58.8382 25.3587 58.4956 25.3587 58.0796L25.3585 56.2465ZM30.4669 58.058C30.4885 58.058 30.4972 58.0673 30.5057 58.0841L30.9089 59.1502C30.9348 59.2194 30.909 59.2585 30.8829 59.2672C30.8656 59.2712 30.8526 59.2804 30.8526 59.2974C30.8526 59.3236 30.9004 59.3236 30.9826 59.328C31.2816 59.3373 31.598 59.3373 31.6629 59.3373C31.7107 59.3373 31.7496 59.3281 31.7496 59.3025C31.7496 59.2809 31.728 59.2764 31.7021 59.2764C31.6674 59.2764 31.5979 59.2725 31.533 59.2506C31.4418 59.2245 31.3164 59.1551 31.1603 58.7692C30.8959 58.1106 30.2155 56.3208 30.1506 56.156C30.0987 56.0216 30.0811 56.0001 30.0549 56.0001C30.0292 56.0001 30.0116 56.0261 29.9597 56.1692L28.9762 58.8604C28.8982 59.077 28.8115 59.2417 28.612 59.2679C28.5774 59.2718 28.5381 59.2771 28.5078 59.2771C28.4691 59.2771 28.4474 59.2863 28.4474 59.3032C28.4474 59.3294 28.4732 59.3379 28.5295 59.3379C28.7333 59.3379 28.9717 59.3248 29.0195 59.3248C29.0669 59.3248 29.2406 59.3379 29.3444 59.3379C29.3836 59.3379 29.4223 59.3287 29.4223 59.3032C29.4223 59.286 29.4092 59.2771 29.366 59.2771C29.3528 59.2771 29.3399 59.2771 29.3272 59.2771C29.2532 59.2771 29.1711 59.2382 29.1711 59.1515C29.1711 59.0735 29.1927 58.9693 29.2315 58.8611L29.4919 58.0941C29.4998 58.0724 29.5135 58.0593 29.5351 58.0593L30.4669 58.058ZM29.5825 57.9019C29.5693 57.9019 29.5609 57.8927 29.5693 57.8717L29.9506 56.7014C29.9723 56.6365 29.994 56.6365 30.0156 56.7014L30.4275 57.8717C30.4314 57.8889 30.4314 57.9019 30.41 57.9019H29.5825ZM34.4703 58.0796C34.4703 58.4956 34.4703 58.8382 34.4487 59.0203C34.4311 59.1458 34.4053 59.2455 34.3187 59.263C34.2795 59.2722 34.2321 59.2761 34.2058 59.2761C34.1667 59.2761 34.1581 59.2893 34.1581 59.3022C34.1581 59.3285 34.1798 59.337 34.2276 59.337C34.3575 59.337 34.6304 59.3239 34.6522 59.3239C34.6738 59.3239 34.9512 59.337 35.1895 59.337C35.2373 59.337 35.2549 59.3238 35.2549 59.3022C35.2549 59.2891 35.2417 59.2761 35.2026 59.2761C35.1768 59.2761 35.0857 59.2669 35.0248 59.2589C34.8948 59.2414 34.8692 59.1462 34.856 59.0207C34.8344 58.8386 34.8344 58.496 34.8344 58.08V57.3171C34.8344 56.6413 34.8344 56.5199 34.8423 56.3814C34.8515 56.2294 34.8856 56.1558 35.0025 56.1341C35.0548 56.1262 35.0806 56.121 35.1112 56.121C35.1283 56.121 35.1455 56.1117 35.1455 56.0952C35.1455 56.0691 35.1238 56.0605 35.0764 56.0605C34.9465 56.0605 34.6731 56.0737 34.6515 56.0737C34.6298 56.0737 34.3569 56.0605 34.2138 56.0605C34.1661 56.0605 34.1443 56.0697 34.1443 56.0952C34.1443 56.1124 34.1619 56.121 34.1792 56.121C34.2097 56.121 34.2657 56.125 34.3135 56.1385C34.4088 56.1603 34.4521 56.2338 34.461 56.3813C34.4703 56.5198 34.4703 56.6412 34.4703 57.317V58.0796ZM38.3359 58.6996C38.3359 59.0938 38.3142 59.2194 38.206 59.2499C38.141 59.2717 38.0629 59.2758 38.0283 59.2758C38.0065 59.2758 37.9935 59.285 37.9935 59.3018C37.9935 59.3321 38.0196 59.3366 38.0629 59.3366C38.2579 59.3366 38.4397 59.3235 38.4797 59.3235C38.5186 59.3235 38.6918 59.3366 38.9383 59.3366C38.9902 59.3366 39.0163 59.3274 39.0163 59.3018C39.0163 59.2847 39.0031 59.2758 38.9815 59.2758C38.9428 59.2758 38.8479 59.2718 38.7657 59.2499C38.6485 59.2153 38.6051 59.1025 38.5966 58.747L38.5402 56.6711C38.6791 56.8272 39.1679 57.3731 39.6702 57.9149C40.1288 58.4091 40.752 59.046 40.7997 59.0894C41.0295 59.3191 41.0821 59.3668 41.1168 59.3668C41.1471 59.3668 41.1557 59.3452 41.1557 59.0592L41.1649 56.528C41.1649 56.229 41.195 56.1641 41.3165 56.1382C41.3684 56.129 41.3945 56.1251 41.4293 56.1207C41.4595 56.1168 41.4767 56.1075 41.4767 56.0904C41.4767 56.0643 41.4464 56.0603 41.3986 56.0603C41.2213 56.0603 41.0782 56.0734 41.0298 56.0734C40.9819 56.0734 40.7739 56.0603 40.5797 56.0603C40.5278 56.0603 40.4931 56.0642 40.4931 56.0904C40.4931 56.1077 40.5062 56.1207 40.5536 56.1207C40.5927 56.1207 40.6611 56.1247 40.7391 56.1423C40.8736 56.1771 40.9038 56.2723 40.9083 56.5543L40.9561 58.7559C40.8173 58.6129 40.3456 58.0841 39.9172 57.6245C39.2506 56.9094 38.6054 56.2119 38.5404 56.1382C38.4971 56.0949 38.4229 55.9994 38.3881 55.9994C38.3534 55.9994 38.3404 56.0471 38.3404 56.216C38.3444 57.0568 38.3364 56.4934 38.3364 58.058L38.3359 58.6996ZM47.6174 56.1167C47.6082 56.0341 47.5956 55.9994 47.5654 55.9994C47.5352 55.9994 47.5176 56.0296 47.5004 56.0688L46.2263 58.7903L44.8999 56.0644C44.8782 56.0169 44.8611 55.9994 44.835 55.9994C44.8088 55.9994 44.7917 56.0385 44.7872 56.0859L44.4754 58.9031C44.4537 59.0808 44.4451 59.2369 44.3021 59.263C44.2367 59.2762 44.2065 59.2761 44.1717 59.2761C44.1501 59.2761 44.1284 59.2854 44.1284 59.3022C44.1284 59.3325 44.1591 59.337 44.2024 59.337C44.3193 59.337 44.5273 59.3239 44.5664 59.3239C44.6008 59.3239 44.8219 59.337 44.9824 59.337C45.0258 59.337 45.0474 59.3278 45.0474 59.2978C45.0474 59.2846 45.0298 59.2761 45.0041 59.2761C44.9779 59.2761 44.9216 59.2762 44.8481 59.2589C44.7831 59.2457 44.7312 59.2112 44.7312 59.1029C44.7312 59.0293 44.7352 58.9684 44.7391 58.8994L44.9168 56.8579C44.9643 56.9752 45.4627 58.0454 45.5016 58.1234C45.5232 58.1667 45.8963 58.9165 46.0088 59.129C46.0913 59.2851 46.1129 59.3285 46.1432 59.3285C46.1824 59.3285 46.195 59.2892 46.2862 59.0983L47.3609 56.819L47.5689 59.0812C47.5781 59.1593 47.582 59.2243 47.5516 59.2373C47.53 59.2452 47.5214 59.2505 47.5214 59.2676C47.5214 59.2892 47.5431 59.3022 47.6428 59.3108C47.803 59.324 48.297 59.337 48.3926 59.337C48.4445 59.337 48.4576 59.3278 48.4576 59.3022C48.4576 59.2806 48.4315 59.2761 48.4098 59.2761C48.3664 59.2761 48.2668 59.2762 48.1409 59.2373C47.9546 59.1765 47.9244 58.9336 47.9072 58.7779L47.6174 56.1167ZM51.3346 58.0796C51.3346 58.4655 51.3307 58.6865 51.3267 58.8557C51.3175 59.1805 51.2618 59.241 51.1707 59.263C51.1405 59.2722 51.1142 59.2722 51.0709 59.2761C51.0448 59.2801 51.0232 59.2893 51.0232 59.3022C51.0232 59.3285 51.0449 59.337 51.0927 59.337C51.2055 59.341 51.3092 59.3239 51.4134 59.3239C51.5822 59.3239 51.7816 59.3331 51.9553 59.337C52.124 59.341 52.2671 59.3502 52.5879 59.3502C52.757 59.3502 52.7914 59.3502 52.8219 59.2374C52.8437 59.1463 52.8783 58.8517 52.8783 58.8169C52.8783 58.7868 52.8783 58.752 52.8523 58.752C52.8305 58.752 52.8219 58.7691 52.8133 58.8169C52.7786 59.0033 52.7308 59.0944 52.5923 59.1377C52.4751 59.1725 52.332 59.1766 52.2021 59.1766C52.033 59.1766 51.916 59.1673 51.8425 59.1377C51.7342 59.0944 51.708 58.9991 51.6994 58.8214C51.6955 58.7304 51.6994 58.2277 51.6994 58.0801V57.6989C51.6994 57.6814 51.7087 57.6687 51.7297 57.6687C51.8032 57.6687 52.2323 57.678 52.3496 57.6903C52.5053 57.7075 52.5575 57.7681 52.5748 57.8334C52.588 57.8723 52.5923 57.9155 52.5923 57.9547C52.5923 57.9891 52.5962 58.0238 52.6225 58.0238C52.6397 58.0238 52.6483 58.0021 52.6528 57.9588C52.6567 57.8983 52.6567 57.7986 52.6703 57.6642C52.6835 57.5212 52.7047 57.4477 52.7047 57.4215C52.7047 57.3954 52.6968 57.3867 52.6831 57.3867C52.6658 57.3867 52.6528 57.4043 52.6312 57.43C52.5879 57.4819 52.5315 57.4951 52.4146 57.5037C52.3149 57.5129 51.7816 57.5129 51.7252 57.5129C51.7035 57.5129 51.6994 57.4997 51.6994 57.4695V56.2731C51.6994 56.2428 51.7086 56.2298 51.7252 56.2298C51.773 56.2298 52.2454 56.2338 52.319 56.243C52.5098 56.2605 52.6009 56.3038 52.6312 56.4035C52.6444 56.4379 52.6528 56.4902 52.6528 56.5466C52.6528 56.5809 52.662 56.6026 52.6876 56.6026C52.7047 56.6026 52.7178 56.5723 52.7222 56.529C52.7301 56.4162 52.7354 56.3341 52.7395 56.2692C52.7474 56.1477 52.7741 56.0958 52.7741 56.0653C52.7741 56.0435 52.7702 56.0264 52.757 56.0264C52.7438 56.0264 52.7352 56.0304 52.7091 56.0435C52.6831 56.0567 52.605 56.0653 52.5097 56.0697C52.4101 56.0737 51.5478 56.0737 51.5172 56.0737C51.2443 56.0605 51.1274 56.0605 51.0277 56.0605C50.9799 56.0605 50.9582 56.0697 50.9582 56.0952C50.9582 56.1124 50.9844 56.1169 51.0145 56.121C51.0534 56.125 51.1098 56.1249 51.1404 56.1341C51.2834 56.1644 51.3178 56.2339 51.3267 56.3814C51.3347 56.5199 51.3346 56.6413 51.3346 57.3171V58.0796ZM55.9371 58.6996C55.9371 59.0938 55.9155 59.2194 55.8072 59.2499C55.7423 59.2717 55.6642 59.2758 55.6295 59.2758C55.6078 59.2758 55.5947 59.285 55.5947 59.3018C55.5947 59.3321 55.6207 59.3366 55.6641 59.3366C55.859 59.3366 56.0408 59.3235 56.0809 59.3235C56.1198 59.3235 56.293 59.3366 56.5395 59.3366C56.5914 59.3366 56.6175 59.3274 56.6175 59.3018C56.6175 59.2847 56.6043 59.2758 56.5829 59.2758C56.544 59.2758 56.4491 59.2718 56.3669 59.2499C56.2496 59.2153 56.2064 59.1025 56.1978 58.747L56.1414 56.6711C56.2802 56.8272 56.7691 57.3731 57.2714 57.9149C57.73 58.4091 58.3532 59.046 58.4009 59.0894C58.6306 59.3191 58.6832 59.3668 58.718 59.3668C58.7483 59.3668 58.7568 59.3452 58.7568 59.0592L58.7661 56.528C58.7661 56.229 58.7963 56.1641 58.9177 56.1382C58.9696 56.129 58.9957 56.1251 59.0304 56.1207C59.0606 56.1168 59.0779 56.1075 59.0779 56.0904C59.0779 56.0643 59.0476 56.0603 58.9997 56.0603C58.8224 56.0603 58.6794 56.0734 58.6309 56.0734C58.5831 56.0734 58.3751 56.0603 58.1809 56.0603C58.129 56.0603 58.0942 56.0642 58.0942 56.0904C58.0942 56.1077 58.1074 56.1207 58.1548 56.1207C58.194 56.1207 58.2624 56.1247 58.3403 56.1423C58.4748 56.1771 58.5049 56.2723 58.5094 56.5543L58.5573 58.7559C58.4184 58.6129 57.9468 58.0841 57.5184 57.6245C56.8519 56.9094 56.2066 56.2119 56.1417 56.1382C56.0983 56.0949 56.024 55.9994 55.9892 55.9994C55.9546 55.9994 55.9416 56.0471 55.9416 56.216C55.9455 57.0568 55.9376 56.4934 55.9376 58.058L55.9371 58.6996ZM63.2076 56.2465C63.3894 56.2505 63.5718 56.2505 63.7536 56.2558C64.1696 56.265 64.2738 56.3641 64.2868 56.4941C64.2868 56.5116 64.2907 56.5246 64.2907 56.5419C64.2947 56.6023 64.304 56.6154 64.3256 56.6154C64.3431 56.6154 64.3561 56.5983 64.3561 56.559C64.3561 56.5116 64.3693 56.2125 64.3693 56.0825C64.3693 56.0564 64.3692 56.0302 64.3475 56.0302C64.3304 56.0302 64.2911 56.0434 64.2262 56.052C64.1571 56.0651 64.0574 56.0736 63.9185 56.0736H62.2934C62.2415 56.0736 62.0768 56.0657 61.951 56.052C61.834 56.0428 61.7907 56.0001 61.7605 56.0001C61.743 56.0001 61.7257 56.0564 61.7168 56.0825C61.7089 56.1173 61.6216 56.49 61.6216 56.5332C61.6216 56.559 61.6308 56.572 61.6433 56.572C61.6608 56.572 61.6734 56.5641 61.6866 56.5287C61.6998 56.4985 61.7127 56.4682 61.7605 56.3943C61.8295 56.2905 61.9338 56.2602 62.2022 56.2558C62.4147 56.2518 62.6313 56.2518 62.8438 56.2465V58.0796C62.8438 58.4956 62.8438 58.8382 62.8222 59.0203C62.8049 59.1458 62.7833 59.241 62.6964 59.2585C62.6575 59.2677 62.6056 59.2758 62.5663 59.2758C62.5405 59.2758 62.5316 59.2889 62.5316 59.3018C62.5316 59.3281 62.5533 59.3366 62.6011 59.3366C62.731 59.3366 63.004 59.3235 63.0257 59.3235C63.0477 59.3235 63.3207 59.3366 63.559 59.3366C63.6067 59.3366 63.6284 59.3234 63.6284 59.3018C63.6284 59.2887 63.6205 59.2758 63.5936 59.2758C63.5545 59.2758 63.4593 59.2665 63.3987 59.2585C63.2684 59.241 63.2427 59.1458 63.2295 59.0203C63.2079 58.8382 63.2079 58.4956 63.2079 58.0796L63.2076 56.2465Z" fill="#0001FF"/>
<path fill-rule="evenodd" clip-rule="evenodd" d="M38.1436 32.9355C38.5583 32.5476 38.9967 32.1496 39.4546 31.7921C41.9897 29.813 43.3861 29.1114 46.1936 27.8806C47.0121 27.5219 49.5855 26.8801 50.1015 26.4521L48.7285 24.1381C46.335 25.5321 44.2413 27.0557 42.241 28.8452L39.9449 31.0274C39.4537 31.5111 38.7744 32.2449 38.1436 32.9355Z" fill="#0001FF"/>
<path fill-rule="evenodd" clip-rule="evenodd" d="M27.9229 28.7783C29.995 29.8105 32.4349 31.4023 34.9869 33.9892L35.438 34.3661C35.4248 30.1019 35.4039 25.8066 35.4446 21.5428C35.4578 20.2223 35.169 20.0882 34.5686 19.2763C33.8311 18.2793 32.6934 17.4992 31.4295 16.9364C30.9586 17.1906 30.511 17.3677 29.9967 17.6146C29.7579 18.1407 29.8874 18.8453 29.8325 19.4714C29.9655 20.6251 30.1443 21.3651 30.8339 22.2885C32.0653 23.7682 33.3709 23.315 33.7818 23.3792C32.7782 24.1189 31.5217 24.0263 30.585 23.6765L29.7045 23.2748C29.5294 23.1606 29.3506 23.0548 29.1552 22.9083C29.014 22.8024 28.7649 22.5407 28.6273 22.4997C28.3774 22.9895 28.2889 23.3033 28.1621 23.9114C27.9905 24.7334 27.9212 26.2586 27.9255 27.1268L27.9392 28.5924C27.9402 28.6321 27.9431 28.6502 27.9389 28.6897C27.9246 28.8448 27.9702 28.5277 27.9284 28.7547L27.9229 28.7783Z" fill="#FF6300"/>
<path fill-rule="evenodd" clip-rule="evenodd" d="M53.104 28.0666C47.7017 29.0227 43.7378 29.9947 39.6863 33.5602C39.1483 34.0335 36.999 36.171 36.7192 37.1268C37.071 36.9969 39.7589 35.2034 41.1638 34.4944L44.0393 33.1464C47.0143 31.9281 50.0633 31.3426 53.6115 31.3268C53.8246 31.6229 54.5697 32.7498 54.6797 33.1379C52.7937 33.2928 49.2409 33.0908 47.7152 33.8865C49.0902 34.0234 51.1125 33.8931 52.6284 33.9535C54.0117 34.0092 55.7877 34.3383 57.0707 34.2742C56.6722 33.337 55.6808 32.4814 55.2787 31.4406L59.5656 31.7778C59.3972 30.9893 51.8641 19.6369 51.0579 18.3472C50.4427 17.363 50.3371 16.9917 49.3503 16.404C47.8312 15.4995 46.6734 15.5995 45.0751 15.6949C45.9584 17.2865 49.7187 22.9061 51.119 25.0038C51.7175 25.9003 52.6856 27.2054 53.104 28.0666Z" fill="#0001FF"/>
<path fill-rule="evenodd" clip-rule="evenodd" d="M12.4346 31.7476C13.6788 31.8839 15.5509 31.2524 16.9516 31.4144C16.7349 31.6282 15.1152 33.9518 14.96 34.2695C16.0359 34.3476 18.1332 34.0071 19.3932 33.9431C21.0522 33.8588 22.6396 33.9685 24.2546 33.9246C24.1344 33.8312 24.1442 33.817 23.9133 33.7186C22.7842 33.2379 18.4132 33.1616 17.3107 33.164L18.4257 31.3541C23.3109 31.0987 27.9374 32.8269 31.9763 35.0477C33.2678 35.7581 34.4818 36.6463 35.5593 37.3022C33.8899 34.7064 33.0558 34.0566 30.8767 32.358C28.0503 30.1545 22.8738 28.4293 18.9646 28.1025C19.6818 26.0072 23.7172 21.9701 20.4301 20.5671C18.9794 21.2311 16.1133 27.9225 12.4346 31.7476V31.7476Z" fill="#0001FF"/>
<path fill-rule="evenodd" clip-rule="evenodd" d="M21.0197 25.3726C21.5566 25.342 21.647 25.4093 22.2675 25.1987C22.274 25.5455 21.9783 26.1669 21.7658 26.4624C21.4678 26.8767 21.1126 27.1291 20.5974 27.4098L20.8333 27.4059C21.8023 27.2305 22.7088 26.7396 23.1529 25.8477C23.2979 25.5562 23.3542 25.1956 23.4345 24.9883C23.7951 24.8538 24.249 24.6616 24.612 24.6495C25.3314 25.3563 27.0688 27.9535 27.5568 28.9166C27.297 27.6205 26.4781 25.3377 25.7411 24.2809L26.1765 24.136C25.8918 23.3124 25.4542 22.625 24.9531 21.9743C24.4801 21.3604 23.9167 20.9479 23.4614 20.3595C23.0944 20.0059 22.597 19.2075 22.3689 18.6839C22.2184 18.3137 22.3716 18.1133 22.4958 17.4582C22.6422 16.6898 22.6682 15.6502 22.5162 14.8642C22.4443 14.4924 22.336 14.1043 22.1842 13.7532C22.1613 13.7001 22.1343 13.6365 22.1079 13.5859L21.9956 13.4219L22.0637 14.7586C21.917 15.2489 22.0351 16.997 20.8835 18.2178C20.3639 18.7687 20.037 18.8628 19.3824 19.5066C19.0561 19.8276 18.4518 20.7094 18.3849 21.0565C18.1497 21.327 17.9295 22.1131 17.8362 22.4582C17.7639 22.7254 17.5191 23.7067 17.5477 23.9691C17.5766 23.8879 17.6216 23.8402 17.6674 23.7397C17.8255 23.3927 18.0265 23.0791 18.2244 22.7437C18.2855 22.6403 18.296 22.5981 18.363 22.4959C18.4766 22.3228 18.5703 22.1717 18.6856 21.9887C18.9362 21.591 19.7243 20.4282 20.3502 20.2447C22.9788 21.2873 21.9359 23.5553 21.0197 25.3723V25.3726Z" fill="#E100FE"/>
<path fill-rule="evenodd" clip-rule="evenodd" d="M17.675 14.3885L17.4425 14.4672C17.2915 14.6283 16.6288 15.1528 16.807 15.7019C16.9609 15.7445 17.0575 15.6755 17.3555 15.6993C18.4035 15.7807 18.0691 16.2149 17.9807 16.5931C17.7408 17.6191 16.606 16.8642 16.1946 17.1666C16.0469 17.4025 16.8472 18.6208 17.5238 18.5453C17.5496 18.446 17.4878 18.0309 17.5105 17.8525C17.5409 17.6121 17.5695 17.4059 17.7214 17.2582C18.1955 16.7973 18.7202 17.5216 18.8594 17.6632C19.1883 17.9975 19.506 18.1946 19.9677 18.2509C20.6088 18.329 20.9014 18.0178 20.9353 17.5125C21.0042 16.4848 20.1673 14.6889 18.712 15.3977C18.4676 15.5168 18.4167 15.7283 18.1443 15.6476C17.6418 15.499 18.0718 14.6502 17.675 14.3892V14.3885Z" fill="#DF00FF"/>
<path fill-rule="evenodd" clip-rule="evenodd" d="M28.3854 12.1983C27.1314 12.8912 27.6356 15.3602 28.2442 15.5678C28.9467 15.8077 30.8321 14.8785 30.4206 13.0941C30.2037 12.1539 29.26 11.715 28.3854 12.1983Z" fill="#0001FF"/>
<path fill-rule="evenodd" clip-rule="evenodd" d="M32.2644 15.1734C30.4478 15.9677 29.8448 16.0326 28.1445 15.9002C26.3731 15.7622 24.9748 14.9272 24.789 14.8992L24.155 14.5318C23.9546 14.4235 23.7301 14.2614 23.5262 14.134L22.6129 13.4797C22.5798 13.453 22.5124 13.3952 22.4773 13.3696C22.4595 13.3564 22.4212 13.3309 22.4018 13.3196C22.3522 13.2904 22.361 13.297 22.3125 13.2769C22.5685 13.6974 23.0176 14.1834 23.3432 14.5659C23.7126 14.9997 24.0583 15.3277 24.4365 15.6938C24.7902 16.0361 25.2535 16.388 25.624 16.6312C26.141 16.9706 26.6446 17.1589 26.9186 17.3378C26.835 17.5162 26.7557 17.8992 26.713 18.1136C26.6563 18.3588 26.6088 18.5719 26.5608 18.8359C26.5142 19.0916 26.491 19.2877 26.4467 19.5422C26.2612 20.9322 26.2471 22.3998 26.462 23.9301C26.6658 25.3794 27.1898 27.5191 27.9115 28.8201L27.9291 28.7551C27.9704 28.5282 27.9251 28.8452 27.9396 28.6902C27.9435 28.6506 27.9409 28.6325 27.9398 28.5928L27.9262 27.1273C27.9222 26.259 27.9912 24.7338 28.1627 23.9118C28.2896 23.3037 28.378 22.9899 28.6279 22.5001C28.7655 22.5411 29.0147 22.8028 29.1559 22.9087C29.3512 23.0552 29.53 23.161 29.7051 23.2752L30.5856 23.6769C31.5224 24.0268 32.7789 24.1193 33.7824 23.3796C33.3715 23.3154 32.066 23.7686 30.8346 22.2889C30.1449 21.3655 29.9662 20.6255 29.8331 19.4718C29.8881 18.8457 29.7586 18.1411 29.9974 17.615C30.6122 17.3198 31.1319 17.1244 31.7098 16.7776C32.9722 16.0198 34.2974 14.8736 35.0793 13.6179C35.1086 13.571 35.0975 13.5864 35.1256 13.5421C35.1779 13.4597 35.119 13.5408 35.178 13.4636L35.1753 13.4558C34.7721 13.6754 34.2289 14.084 33.7987 14.3447C33.3367 14.6248 32.7691 14.9504 32.2647 15.1733L32.2644 15.1734Z" fill="#0001FF"/>
<path fill-rule="evenodd" clip-rule="evenodd" d="M47.7773 22.5342L46.3947 20.2041C44.1892 22.2493 42.3696 24.3443 40.7258 26.7126L38.9987 29.3681C38.2706 30.5326 37.0468 32.8349 36.6079 33.5889C36.6171 33.8384 36.6286 34.059 36.642 34.2453C37.1018 33.2455 38.2501 31.541 38.5851 31.0831C41.2579 27.432 44.0949 25.1161 47.7773 22.5342Z" fill="#E100FE"/>
<path fill-rule="evenodd" clip-rule="evenodd" d="M45.3681 18.4807C44.9624 17.8246 44.4642 17.0782 44.1246 16.4119C42.1832 18.9496 40.6823 21.4498 39.4274 24.2129L38.205 27.1352C37.6737 28.4715 36.8318 31.1324 36.5718 31.8207C36.5757 32.2471 36.5824 32.6446 36.5903 33.0033C36.8552 31.8994 37.4857 30.2213 37.6886 29.7381C39.5795 25.2362 42.0177 22.2024 45.3681 18.4807V18.4807Z" fill="#FF6300"/>
<path fill-rule="evenodd" clip-rule="evenodd" d="M41.8363 16.3965C40.1264 16.949 38.5259 18.0736 37.5334 19.2142C36.8347 20.017 36.6097 20.1942 36.617 21.5427C36.6276 23.394 36.5656 27.205 36.5654 30.2881C36.6854 29.2679 36.895 28.1289 36.9821 27.7343C37.9412 23.3888 39.5663 20.1612 41.8363 16.3965V16.3965Z" fill="#FF6300"/>
<path fill-rule="evenodd" clip-rule="evenodd" d="M0 39.4075H72V39.1942H0V39.4075Z" fill="#D76713"/>
</svg>
